<?xml version="1.0" standalone="no"?>
<!DOCTYPE svg PUBLIC "-//W3C//DTD SVG 20010904//EN"
 "http://www.w3.org/TR/2001/REC-SVG-20010904/DTD/svg10.dtd">
<svg version="1.0" xmlns="http://www.w3.org/2000/svg"
 width="1024.000000pt" height="1024.000000pt" viewBox="0 0 1024.000000 1024.000000"
 preserveAspectRatio="xMidYMid meet">
<metadata>
Created by potrace 1.11, written by Peter Selinger 2001-2013
</metadata>
<g transform="translate(0.000000,1024.000000) scale(0.100000,-0.100000)"
fill="#000000" stroke="none">
<path d="M4965 10173 c-1077 -53 -2063 -595 -2684 -1476 l-54 -77 -564 0 -563
0 0 -245 0 -245 425 0 c248 0 425 -4 425 -9 0 -5 -13 -39 -30 -75 -84 -188
-190 -558 -225 -786 -8 -58 -18 -119 -21 -137 -4 -27 -23 -45 -118 -117 -602
-452 -957 -1151 -959 -1886 0 -180 13 -282 63 -480 177 -701 743 -1784 1610
-3080 246 -367 686 -990 710 -1005 14 -8 473 638 765 1077 76 115 141 208 145
208 4 0 122 -172 262 -382 141 -211 340 -504 444 -653 198 -285 522 -735 529
-735 17 0 621 861 966 1378 l269 402 151 -227 c233 -349 701 -1015 749 -1066
9 -10 40 31 295 387 935 1308 1686 2625 1959 3440 103 307 140 502 139 736 -1
524 -181 1033 -514 1455 -129 164 -340 363 -495 468 -58 39 -63 45 -69 87 -47
331 -142 685 -245 916 -17 36 -30 70 -30 75 0 5 177 9 425 9 l425 0 0 245 0
245 -563 0 -563 0 -59 83 c-120 169 -214 277 -394 457 -198 197 -335 310 -546
449 -605 398 -1341 600 -2060 564z m524 -518 c453 -57 897 -221 1271 -470 193
-129 314 -228 485 -400 l149 -150 -419 -6 c-368 -6 -435 -9 -540 -28 -218 -39
-366 -89 -565 -192 -267 -138 -524 -372 -692 -629 -27 -41 -51 -75 -53 -75 -2
0 -26 34 -53 75 -76 117 -162 218 -280 331 -273 261 -592 421 -977 490 -105
19 -172 22 -540 28 l-419 6 149 150 c171 172 292 271 485 400 431 287 888 439
1470 489 88 8 407 -4 529 -19z m-1663 -1569 c507 -127 884 -504 1010 -1010 34
-136 44 -384 20 -528 -70 -427 -341 -800 -721 -995 -124 -63 -212 -95 -346
-125 -138 -30 -407 -33 -539 -4 -576 124 -998 567 -1087 1141 -18 120 -12 340
12 461 36 176 116 363 218 514 125 183 357 374 567 466 202 89 339 115 585
110 151 -4 196 -8 281 -30z m3129 19 c290 -47 536 -174 745 -384 117 -117 184
-210 253 -347 92 -182 135 -350 143 -568 9 -224 -30 -421 -122 -616 -188 -397
-537 -672 -975 -766 -131 -29 -400 -26 -538 4 -489 109 -870 455 -1020 925
-50 157 -64 266 -58 457 8 236 53 404 162 606 172 316 493 569 836 660 176 46
402 57 574 29z m-5271 -1782 c139 -828 772 -2178 1783 -3807 l124 -199 -53
-84 c-101 -162 -543 -817 -553 -820 -18 -5 -459 659 -737 1107 -639 1033
-1030 1844 -1130 2343 -18 88 -22 144 -21 262 2 383 127 759 358 1078 58 80
187 225 200 226 6 1 19 -47 29 -106z m6980 36 c305 -323 487 -781 489 -1234 1
-118 -3 -174 -21 -262 -100 -499 -491 -1310 -1130 -2343 -278 -449 -719 -1112
-737 -1106 -15 4 -470 682 -583 867 l-22 37 123 198 c1011 1629 1644 2979
1783 3807 10 59 21 107 25 107 4 0 37 -32 73 -71z m-3417 -777 c134 -69 184
-209 128 -357 -50 -132 -240 -474 -256 -458 -34 34 -208 361 -245 461 -61 160
6 310 163 368 53 20 157 13 210 -14z m-2463 -537 c219 -93 411 -134 664 -142
316 -10 578 42 859 172 42 19 77 34 78 33 1 -2 10 -26 19 -53 44 -137 214
-447 376 -690 109 -162 336 -476 345 -476 9 0 236 314 345 476 162 243 332
553 376 690 9 27 18 51 19 53 1 1 40 -15 86 -37 178 -82 379 -139 571 -161
132 -16 418 -8 539 14 181 34 426 118 542 186 20 12 37 19 37 16 0 -30 -326
-685 -496 -996 -310 -569 -723 -1259 -1144 -1910 -321 -496 -866 -1298 -878
-1291 -4 3 -29 36 -56 75 -826 1196 -1449 2190 -1960 3126 -168 308 -496 966
-496 996 0 3 15 -3 33 -14 17 -11 81 -41 141 -67z"/>
<path d="M3455 7114 c-135 -29 -277 -104 -385 -200 -104 -95 -203 -258 -242
-403 -30 -108 -30 -314 0 -424 63 -230 232 -434 446 -537 132 -63 189 -75 366
-75 149 1 159 2 250 33 161 56 295 147 387 264 69 88 69 89 10 65 -35 -14 -76
-21 -127 -21 -66 -1 -84 3 -142 32 -303 149 -303 625 1 775 58 28 75 32 146
32 92 -1 150 -22 223 -82 41 -34 44 -35 38 -12 -17 58 -90 192 -141 258 -98
125 -232 217 -395 272 -85 29 -109 32 -230 35 -95 3 -156 -1 -205 -12z"/>
<path d="M6725 7114 c-322 -71 -578 -336 -639 -663 -84 -443 210 -878 653
-967 63 -12 116 -15 205 -12 146 6 265 42 390 116 91 54 205 162 259 244 40
61 47 80 19 55 -10 -9 -44 -28 -77 -44 -85 -39 -185 -39 -272 1 -79 36 -153
113 -196 203 -30 65 -32 74 -32 188 0 120 0 122 38 197 51 104 132 179 223
208 83 25 125 25 205 0 83 -26 166 -92 207 -165 17 -31 14 -4 -9 71 -77 255
-277 456 -539 545 -85 29 -109 32 -230 35 -95 3 -156 -1 -205 -12z"/>
</g>
</svg>
